<svg data-name="Слой 1" xmlns="http://www.w3.org/2000/svg" viewBox="0 0 260.92 88.22"><path d="M12.47 24.29l14.73-1.88a30.25 30.25 0 00-5.75 18.31c0 12.36 6.5 22.64 15.1 24.84L35.47 77.5c-.44 4.78-8.35 7.26-12.38 9.21C16.93 83.09 13 75.53 6.62 63.15L4.4 34.43l8.07-10.14zm37.59-4.79l4.59-.59.83 7.93a23 23 0 00-5.42-7.34zm7.65 28.66l1.6 15.19C53 72.4 51.91 80.2 62 86l-5.86 2.26c-4.78-3.39-10.85-5.72-11-11.16l-.34-11.97c6.16-2.25 11.05-8.71 12.91-17z" fill="#ec6608" fill-rule="evenodd"/><path d="M62 86a28.44 28.44 0 01-5.86 2.26c-3.36-2.39-7.35-4.24-9.48-7 0-4.64 2.33-10.67 6.15-15.73 4.43-5.86 4.1-6.12 5.94-13.24C63 73.58 45.64 72.71 62 86zM12.57 24.35L54.75 19l.28 2.7-31.19 4-4.26 3.27c.9 11.09-5.24 26.22-5 35.66.3 10.41 2.9 18 7.46 21.4l1.05.77C11 80.58 10.27 76.48 6.61 63 4.25 54.3 5.25 44.22 4.5 34.49l8.07-10.14z" fill="#e74011" fill-rule="evenodd"/><path d="M54.67 11.89c-14.79-3.21-28.31 18.79-2.78 32.94C59.6 49.1 60 54.1 60 62.37 72.64 46.71 78.12 17 54.67 11.89z" fill="#afca0b" fill-rule="evenodd"/><path d="M47.66 13.69C35.82 16.36 28.79 34.4 50.81 46.6c7.71 4.27 8.13 9.27 8.06 17.54 4.53-5.59 1.82-16.73-4.18-21.32-14.57-11.16-13.42-23.12-7-29.13z" fill="#7faf23" fill-rule="evenodd"/><path d="M30.79.08c19.88 1.28 29.05 34-8.38 42.69-11.29 2.62-13.14 8.8-16 19.29C-4 37.66-.73-2 30.79.08z" fill="#00ada3" fill-rule="evenodd"/><path d="M46.35 11C52.26 21.71 48.06 38.26 23 44.07 11.75 46.69 9.65 53 6.75 63.49c-5.26-12.32.63-25.35 13.92-28.44C39.34 30.72 46.41 20.4 46.35 11z" fill="#009fe3" fill-rule="evenodd"/><path d="M81.5 40.81a1.41 1.41 0 001.5 1.32h.75v26a1.35 1.35 0 001.47 1.32h5.32c5.42 0 10.13-3.24 10.13-8.74a7.88 7.88 0 00-4.44-7.17 8.64 8.64 0 003.46-6.82c0-3.42-2.57-7.43-9.77-7.43h-6.78a1.56 1.56 0 00-1.64 1.5zm113.28 14.48v13a1.42 1.42 0 001.48 1.34 1.58 1.58 0 001.66-1.51V42.13h8.57a1.56 1.56 0 001.64-1.49 1.42 1.42 0 00-1.47-1.33h-19.12a1.54 1.54 0 00-1.64 1.5v2.13a1.41 1.41 0 001.46 1.32 1.57 1.57 0 001.64-1.49v-.64h5.77v13.16zm-41.12 12.87a1.43 1.43 0 001.48 1.33 1.59 1.59 0 001.67-1.49V40.66a1.36 1.36 0 00-1.47-1.33h-12.47a1.56 1.56 0 00-1.64 1.5 1.41 1.41 0 001.46 1.32h.76c-.32 11.64-4.36 22.35-7.11 25a1.53 1.53 0 00-.44 1 1.43 1.43 0 001.46 1.32 1.81 1.81 0 001.2-.47c3.69-3.54 7.68-15.31 8-26.87h7.11v26zm95.28-9.09l7.84 10a1.45 1.45 0 002 .19 1.55 1.55 0 00.34-2.2l-.19-.25-7-8.9-.86-1.1-2.78-3.52 10.52-12.11a1.58 1.58 0 00.36-.94 1.44 1.44 0 00-1.47-1.32 1.78 1.78 0 00-1.29.55l-10.79 12.38h-3V40.64a1.36 1.36 0 00-1.47-1.33H239a1.56 1.56 0 00-1.64 1.5 1.41 1.41 0 001.46 1.32h.76v26.44A1.41 1.41 0 00241 69.9a1.57 1.57 0 001.65-1.5V54.67h2.84l3.45 4.4zM91.4 52.41h-4.57V42.13h2.88c5.6 0 6.84 2.86 6.84 4.78a5.37 5.37 0 01-5.15 5.5zm-.18 2.81c3.2 0 6.31 2 6.31 5.68s-2.93 5.75-6.84 5.75h-3.86V55.22zm18.34-.93c0-7 3.78-12.59 9.46-12.59 5.86 0 9.64 5.76 9.64 12.76s-3.78 12.62-9.46 12.62-9.64-5.67-9.64-12.79zm-3.1.17c0 8.14 4.66 15.44 12.56 15.44 7.64 0 12.75-7 12.75-15.61 0-8.15-4.67-15.4-12.57-15.4-9.72 0-12.74 9.77-12.74 15.57zm60.08-13.65a1.41 1.41 0 001.46 1.32h.76v26.44a1.41 1.41 0 001.46 1.33 1.58 1.58 0 001.65-1.5V42.13h8.43v.38a1.42 1.42 0 001.47 1.33 1.57 1.57 0 001.64-1.5v-1.7a1.36 1.36 0 00-1.41-1.33h-13.82a1.56 1.56 0 00-1.64 1.5zm47.78 6.1a7.14 7.14 0 003 6.1 9.09 9.09 0 00-4.44 7.76c0 5.8 4.53 9.13 9.5 9.13 4.08 0 8.26-2.86 8.26-4.61a1.32 1.32 0 00-1.42-1.19 1.91 1.91 0 00-.85.21c-.62.38-2.35 2.77-5.81 2.77-3.24 0-6.58-2-6.58-6.48a6.33 6.33 0 016.13-6.23h3.07a1.57 1.57 0 001.64-1.49 1.41 1.41 0 00-1.47-1.32h-3.06a4.51 4.51 0 01-4.88-4.82c0-2.44 2-4.61 5.77-4.61h2.71v.81a1.41 1.41 0 001.46 1.32 1.57 1.57 0 001.65-1.49v-2.13a1.37 1.37 0 00-1.47-1.33h-4.17c-5.73 0-9.06 3.63-9.06 7.6z"/></svg>